<?xml version="1.0" encoding="utf-8"?>
<!-- Generator: Adobe Illustrator 16.2.1, SVG Export Plug-In . SVG Version: 6.00 Build 0)  -->
<!DOCTYPE svg PUBLIC "-//W3C//DTD SVG 1.1//EN" "http://www.w3.org/Graphics/SVG/1.1/DTD/svg11.dtd">
<svg version="1.1" id="レイヤー_1" xmlns="http://www.w3.org/2000/svg" xmlns:xlink="http://www.w3.org/1999/xlink" x="0px"
	 y="0px" width="82.695px" height="68.14px" viewBox="0 0 82.695 68.14" enable-background="new 0 0 82.695 68.14"
	 xml:space="preserve">
<g>
	<path d="M19.241,3.219c0.821-0.509,1.758-0.429,2.696-0.548c2.461-0.392,5-1.132,7.424-1.523C31,0.913,32.68,1.383,34.049,0.6
		c5.273,0.157,11.564-0.194,17.697,0.548c1.797,0.235,3.672,0.546,5.392,0.859c1.094,0.234,2.03,0.821,2.971,1.134
		c1.014,0.353,2.029,0.233,1.836,1.795c-0.549,1.251-3.518,1.135-5.236,1.76c-0.741,0.272-1.366,0.703-2.108,0.858
		c-1.993,0.352-4.767,0.274-6.797,0.352c-0.82,0-1.562,0.274-2.347,0.353c-0.818,0.039-1.562-0.196-2.422-0.235
		c-1.055-0.039-2.146,0.196-3.242,0.157c-5.626-0.235-11.291-0.781-16.211-1.29C21.898,5.952,18.928,5.68,19.241,3.219L19.241,3.219
		z M49.323,5.911c1.367,0.116,2.89-0.037,3.983-0.428c1.523-0.078,3.438,0.078,4.377-0.78c0-0.157-0.08-0.274-0.041-0.508
		c-6.641-2.345-16.25-2.031-23.399-1.328l0,0c-0.196-0.078-0.273-0.235-0.548-0.196c-3.945,0.509-8.32,0.548-11.524,2.306
		c1.484,0.039,2.416,0.383,3.946,0.664c1.53,0.282,16.456-0.01,16.691,0.223L49.323,5.911z"/>
	<g>
		<path d="M43.472,14.463c3.876,2.437,1.561,8.733-3.076,8.113c-1.927-0.275-4.362-2.476-3.851-5.265
			c0.354-1.926,2.167-3.496,4.006-3.496C42.389,13.816,43.442,14.443,43.472,14.463z M38.784,17.429
			c-1.607,2.906,3.852,4.949,4.558,1.885c-0.314,0.119-0.943,0.513-1.572,0.551c-2.04,0.039-2.354-1.139-2.159-2.983
			C39.255,16.998,38.94,17.154,38.784,17.429L38.784,17.429z"/>
		<path d="M67.939,19.709c1.649,0.233,2.945,1.334,3.771,2.592c0.941,2.238-0.354,5.184-2.396,5.734
			c-3.457,1.021-6.756-1.65-6.205-4.91C63.462,21.003,65.308,19.826,67.939,19.709L67.939,19.709z M65.896,22.576
			c-0.312-0.119-0.549,0.393-0.785,0.549c-0.432,1.768,0.275,3.26,2.043,2.944C66.094,25.56,65.464,24.146,65.896,22.576
			L65.896,22.576z"/>
		<path d="M15.857,20.925c0.98,1.021,2.396,1.963,2.277,3.85c-0.079,1.101-0.785,1.648-1.021,2.709
			c-0.943,0.826-2.238,1.927-4.124,1.65c-2.278-0.394-3.889-3.221-3.339-5.617C10.202,21.121,13.03,19.748,15.857,20.925
			L15.857,20.925z M11.673,23.864c-0.902,1.808,0.885,3.778,2.731,2.835c0-0.393-0.707-0.668-0.903-0.432
			c-1.297-0.471-0.516-3.393-0.432-3.418C12.399,23.047,11.673,23.864,11.673,23.864z"/>
		<path d="M61.812,39.387c-4.949-3.025-19.64-3.301-19.64-3.301s-5.772,0.158-8.522,0.512c-4.674,0.588-9.151,1.1-12.766,2.906
			c-0.55-0.512-0.825-1.642,0.157-1.877l0.275-0.066c0.628-0.354,7.319-1.635,10.383-2.056c14.989-2.06,28.99,1.406,30.897,2.153
			c0.629,0.472,1.336,1.964-0.195,1.925L61.812,39.387z M61.812,41.939c-2.277-0.434-4.32-1.414-6.756-1.846
			c-3.144-0.59-6.718-0.354-10.369-0.512c-1.61-0.039-2.946-0.584-4.559-0.429c-3.808,0.354-7.304,0.586-11.037,1.058
			c-1.372,0.194-3.696,1.155-5.188,1.313c-0.562,0.062-1.792,0.148-2.396-0.188c-0.535-0.299-0.602-1.072-0.465-1.243
			c0.438-0.547,2.121-0.943,2.985-1.219c3.103-0.982,7.579-1.609,11.468-2.082c1.022-0.117,2.121-0.195,3.064-0.195
			c8.249,0,16.934,0.905,23.298,2.948C62.358,39.796,63.864,39.883,61.812,41.939z M60.954,36.5
			c-0.041-0.394-0.397-0.769-0.281-0.963c-3.897,0.718-6.689-0.707-8.522-2.199c-1.723,1.244-7.18,2.088-10.606-1.375
			c-1.491,2.789-8.092,4.045-10.684,1.414c-1.414,2.553-5.223,3.104-8.836,2.514c-0.088,1.604-1.747,1.713-1.848,1.688
			c-1.688-2.435-2.984-5.302-4.478-7.974c0.51-0.471,1.061-0.901,1.768-1.139c1.61,1.649,2.946,4.32,6.206,4.713
			c3.261,0.393,5.225-1.768,4.636-4.635c-1.769-0.039-3.336-2.359-2.512-4.322c0.902-2.082,4.351-1.405,5.144,0.355
			c0.793,1.76-0.435,2.711-1.298,3.457c0.118,0.155,3.691,4.084,6.638,2.944c1.573-1.375,2.948-3.612,3.182-5.971
			c0.039-0.394-0.116-0.941,0.081-1.217c0.109-0.177,0.159-0.721,0.159-0.721s2.138,0.288,2.786-0.144
			c0.313,0.313,0.155,0.979,0.275,1.492c0.392,2.041,1.884,4.949,3.492,5.891c0.591,0.394,3.026,0.433,3.97,0.078
			c0.799-0.293,1.982-2.932,1.982-2.932s-0.771-0.575-1.197-0.916c-0.707-1.888,0.12-3.329,1.495-3.997
			c1.691-0.785,3.531,0.47,3.843,2.109c0.31,1.641-0.39,2.515-1.41,3.025c-0.314,0-0.629,0-0.943,0l0,0
			c-0.013,2.427,3.087,6.302,7.855,4.713c0.471-0.393,3.234-4.086,3.234-4.086l1.864,0.8L63.5,36.731
			C63.501,36.732,61.385,37.471,60.954,36.5z M54.232,26.07c-0.904,0.041-1.846-0.272-1.887-1.295c-0.039,0-0.117,0-0.195,0
			C51.599,26.031,53.642,27.21,54.232,26.07L54.232,26.07z M29.014,26.423c-1.021,0.512-1.413-0.588-1.847-1.062
			c-0.039,0-0.117,0-0.155,0C26.737,26.345,28.466,27.759,29.014,26.423L29.014,26.423z"/>
		<path d="M48.105,34.83C48.183,34.554,48.183,35.105,48.105,34.83L48.105,34.83L48.105,34.83z"/>
		<path d="M22.887,42.096c2.475-0.393,5.026-1.139,7.464-1.531c1.646-0.235,16.339-0.746,22.505,0
			c1.807,0.236,3.69,0.549,5.42,0.863c1.1,0.236,3.777,0.326,3.584,1.896c-0.553,1.258-2.287,2.189-4.016,2.818
			c-4.357,1.596-9.816,1.747-17.009,1.492c-5.655-0.236-11.167-0.276-16.249-1.396c-1.611-0.354-3.206-1.256-2.909-3.592
			C21.677,42.647,21.945,42.215,22.887,42.096z M34.71,42.096c-3.967,0.512-10.632,0.574-11.086,1.668
			c0.183,0.731,1.531,1.153,3.468,1.317c-2.082-1.807,1.807-1.102,2.984-1.219c0.706,0.394,1.806,0.59,2.71,0.551
			c-0.08-0.745-1.768,0.039-1.572-0.981c0.983-0.156,2.16,0,3.302,0.078c0-0.234-0.158-0.314-0.08-0.588
			c0.274-0.158,0.473-0.314,0.785-0.354c1.061-0.089,3.2,0.773,3.2,0.773s1.098-0.685,2.362-0.775
			c1.011-0.073,2.13-0.151,2.882-0.194c0.315,0.196,0.472,0.551,0.707,0.784c0.629-0.038,1.258-0.272,2.004-0.313
			c1.61-0.039,3.536-0.234,4.478,0.434c-0.98,0.472-2.515,0.433-3.416,1.021c2.436,0.039,5.145-0.472,7.697-0.078
			c-1.335,0.823-3.416,0.512-4.714,1.336c1.375,0.117,2.906-0.236,4.007-0.629c1.532-0.078,3.457,0.078,4.399-0.785
			c0-0.158-0.08-0.275-0.041-0.51C52.111,41.272,34.985,42.057,34.71,42.096z M43.626,42.842
			C43.705,43.156,43.705,42.568,43.626,42.842L43.626,42.842L43.626,42.842z M27.601,45.198c1.179,0.275,1.845,0.117,2.984,0.314
			C29.878,45.238,27.64,44.295,27.601,45.198L27.601,45.198z M30.665,45.436c0.117,0.117,0.472,0.039,0.549-0.08
			C30.94,45.436,30.705,45.159,30.665,45.436L30.665,45.436z"/>
	</g>
	<g>
		<g>
			<path fill="#040000" d="M2.56,64.61H1.249v-9.177h5.244v1.312h1.311v2.621H6.493v1.312H2.559L2.56,64.61L2.56,64.61z
				 M6.44,56.744H2.56v2.621h3.88V56.744z M6.492,64.61v-3.933h1.311v3.933H6.492z"/>
			<path fill="#040000" d="M14.62,63.3h-1.312v-7.866h1.312V63.3h3.933v1.311H14.62V63.3z M18.552,55.434h1.312V63.3h-1.312V55.434z
				"/>
			<path fill="#040000" d="M25.37,55.434h1.312V63.3h5.244v1.311H25.37V55.434z"/>
			<path fill="#040000" d="M38.742,63.3h5.244v1.311h-6.555v-9.177h6.555v1.312h-5.244v2.621h3.934v1.312h-3.934V63.3z"/>
			<path fill="#040000" d="M50.802,64.61h-1.312v-9.177h5.244v1.312h1.311v2.621h-1.311v1.312h-3.934L50.802,64.61L50.802,64.61z
				 M54.683,56.744h-3.881v2.621h3.881V56.744z M54.736,64.61v-3.933h1.311v3.933H54.736z"/>
			<path d="M64.176,64.61h-1.312v-2.622h-1.312v-3.933h1.312v3.933h1.312V64.61h1.311v1.312h-1.311V64.61z M62.863,55.434h1.312
				v2.622h-1.312V55.434z M64.176,54.122h1.311v1.312h-1.311V54.122z"/>
			<path d="M69.365,59.365h-1.312v-2.621h1.312V59.365h3.933v1.312h1.312V63.3h-1.312v-2.622h-3.933V59.365z M68.054,61.988h1.312
				V63.3h3.933v1.311h-3.933V63.3h-1.312V61.988z M73.298,56.744h-3.933v-1.312h3.933V56.744h1.312v1.312h-1.312V56.744z"/>
			<path d="M79.802,58.056h-1.312v-2.622h-1.311v-1.312h1.311v1.312h1.312V58.056h1.311v3.933h-1.311V58.056z M77.179,64.61h1.311
				v1.312h-1.311V64.61z M78.489,61.988h1.312v2.622h-1.312V61.988z"/>
		</g>
	</g>
</g>
</svg>
